<svg id="Layer_1" data-name="Layer 1" xmlns="http://www.w3.org/2000/svg" viewBox="0 0 1000 1000"><defs><style>.cls-1{fill:#2e3192;}.cls-2{fill:#85c441;}.cls-3{font-size:72px;fill:#283892;font-family:SansSerifCollection, Sans Serif Collection;}.cls-4{fill:#86c544;}</style></defs><title>UtilityLink Logo</title><path class="cls-1" d="M524.34,486v7a73.12,73.12,0,0,1-8.63,35.55q-8.64,15.84-26.35,25t-45.05,9.19q-38.3,0-58.3-19.31t-20-51V370h25.71V493.29q0,23.18,13.4,35.95T445.6,542q28,0,40.5-13.72T498.64,493V370h25.7V486"/><polyline class="cls-2" points="548.5 528.92 548.5 556.64 572.87 556.64 645.5 556.64 645.5 528.92 572.5 528.92"/><polyline class="cls-2" points="581.5 512 581.5 370 548.5 370 548.5 512"/><text class="cls-3" transform="translate(335.39 625)">Utility<tspan class="cls-4" x="197.06" y="0">Link</tspan></text></svg>